<svg width="44" height="44" viewBox="0 0 44 44" fill="none" xmlns="http://www.w3.org/2000/svg">
<path d="M17.68 6.8H9.51997C8.76887 6.8 8.15997 7.4089 8.15997 8.16V35.36C8.15997 36.1111 8.76887 36.72 9.51997 36.72H17.68C18.4311 36.72 19.04 36.1111 19.04 35.36V8.16C19.04 7.4089 18.4311 6.8 17.68 6.8Z" stroke="black" stroke-width="2.56" stroke-linecap="round" stroke-linejoin="round"/>
<path d="M37.0039 34.9809L29.0462 36.6809C28.8708 36.7182 28.6897 36.7205 28.5134 36.6875C28.3372 36.6546 28.1691 36.5872 28.019 36.489C27.8689 36.3909 27.7397 36.2641 27.6388 36.1158C27.5379 35.9676 27.4674 35.8008 27.4312 35.6252L21.7906 8.806C21.7147 8.45172 21.782 8.08181 21.9779 7.77701C22.1738 7.47221 22.4823 7.25727 22.8361 7.1791L30.7938 5.4791C30.9692 5.44179 31.1502 5.43953 31.3265 5.47246C31.5028 5.50539 31.6708 5.57285 31.8209 5.67097C31.971 5.76909 32.1002 5.89592 32.2011 6.04418C32.302 6.19243 32.3726 6.35917 32.4088 6.5348L38.0494 33.354C38.1252 33.7083 38.0579 34.0782 37.862 34.383C37.6661 34.6878 37.3576 34.9027 37.0039 34.9809Z" stroke="black" stroke-width="2.56" stroke-linecap="round" stroke-linejoin="round"/>
<path d="M8.15997 12.24H19.04" stroke="black" stroke-width="2.56" stroke-linecap="round" stroke-linejoin="round"/>
<path d="M8.15997 31.28H19.04" stroke="black" stroke-width="2.56" stroke-linecap="round" stroke-linejoin="round"/>
<path d="M22.6372 12.8316L33.2537 10.5502" stroke="black" stroke-width="2.56" stroke-linecap="round" stroke-linejoin="round"/>
<path d="M23.7643 18.1968L34.3825 15.9154" stroke="black" stroke-width="2.56" stroke-linecap="round" stroke-linejoin="round"/>
<path d="M26.5863 31.6098L37.2028 29.3284" stroke="black" stroke-width="2.56" stroke-linecap="round" stroke-linejoin="round"/>
</svg>
