<svg width="11" height="9" viewBox="0 0 11 9" fill="none" xmlns="http://www.w3.org/2000/svg">
<path d="M5.5 1.95455C5.5 1.56878 5.66209 1.19881 5.95061 0.926026C6.23912 0.653246 6.63044 0.5 7.03846 0.5H10.5V7.04545H7.03846C6.63044 7.04545 6.23912 7.1987 5.95061 7.47148C5.66209 7.74426 5.5 8.11423 5.5 8.5" stroke="#395539" stroke-linecap="round" stroke-linejoin="round"/>
<path d="M0.5 7.04545H3.96154C4.36956 7.04545 4.76088 7.1987 5.0494 7.47148C5.33791 7.74426 5.5 8.11423 5.5 8.5V1.95455C5.5 1.56878 5.33791 1.19881 5.0494 0.926026C4.76088 0.653246 4.36956 0.5 3.96154 0.5H0.5V7.04545Z" stroke="#395539" stroke-linecap="round" stroke-linejoin="round"/>
</svg>
