<svg width="18" height="17" viewBox="0 0 18 17" fill="none" xmlns="http://www.w3.org/2000/svg">
<path d="M9.00212 13.7099L13.476 16.4024C13.5921 16.4714 13.7264 16.5051 13.8621 16.4994C13.9977 16.4936 14.1286 16.4486 14.2382 16.3701C14.3477 16.2916 14.431 16.183 14.4776 16.0582C14.5241 15.9333 14.5318 15.7978 14.4996 15.6687L13.283 10.6445L17.2647 7.2838C17.3662 7.19656 17.4394 7.08214 17.4752 6.95465C17.5111 6.82717 17.508 6.6922 17.4663 6.56643C17.4247 6.44065 17.3463 6.32956 17.2409 6.24688C17.1354 6.1642 17.0076 6.11354 16.8731 6.10116L11.6478 5.68508L9.63494 0.916129C9.58362 0.793095 9.49603 0.687808 9.38332 0.613694C9.27062 0.539581 9.13791 0.5 9.00212 0.5C8.86634 0.5 8.73363 0.539581 8.62093 0.613694C8.50822 0.687808 8.42063 0.793095 8.36931 0.916129L6.3564 5.68508L1.13118 6.10116C0.995761 6.1128 0.866846 6.16323 0.760544 6.24616C0.654241 6.32909 0.575265 6.44084 0.533482 6.56744C0.491699 6.69405 0.488962 6.82989 0.525612 6.95801C0.562263 7.08613 0.636677 7.20083 0.739556 7.2878L4.72122 10.6485L3.50465 15.6687C3.47248 15.7978 3.48015 15.9333 3.52669 16.0582C3.57322 16.183 3.65652 16.2916 3.76607 16.3701C3.87562 16.4486 4.0065 16.4936 4.14217 16.4994C4.27783 16.5051 4.41219 16.4714 4.52827 16.4024L9.00212 13.7099Z" fill="#FFB468" stroke="#FFB468" stroke-linecap="round" stroke-linejoin="round"/>
</svg>
