<svg width="21" height="21" viewBox="0 0 21 21" fill="none" xmlns="http://www.w3.org/2000/svg">
<path d="M10.5 15.5113L14.9888 18.2716C15.1052 18.3423 15.24 18.3769 15.3761 18.371C15.5123 18.3651 15.6436 18.319 15.7535 18.2385C15.8634 18.158 15.947 18.0467 15.9937 17.9187C16.0404 17.7907 16.0481 17.6518 16.0158 17.5194L14.7952 12.3687L18.7901 8.92336C18.8919 8.83393 18.9654 8.71662 19.0013 8.58592C19.0373 8.45523 19.0342 8.31687 18.9924 8.18792C18.9506 8.05897 18.8719 7.94509 18.7662 7.86032C18.6604 7.77556 18.5321 7.72363 18.3972 7.71094L13.1545 7.28438L11.1349 2.39531C11.0834 2.26918 10.9956 2.16124 10.8825 2.08526C10.7694 2.00928 10.6362 1.9687 10.5 1.9687C10.3638 1.9687 10.2306 2.00928 10.1175 2.08526C10.0045 2.16124 9.91657 2.26918 9.86508 2.39531L7.84547 7.28438L2.60286 7.71094C2.46699 7.72287 2.33764 7.77457 2.23099 7.85959C2.12433 7.94461 2.04509 8.05917 2.00317 8.18896C1.96125 8.31875 1.9585 8.45802 1.99527 8.58937C2.03204 8.72071 2.10671 8.83831 2.20993 8.92746L6.20485 12.3728L4.98422 17.5194C4.95196 17.6518 4.95965 17.7907 5.00634 17.9187C5.05302 18.0467 5.13661 18.158 5.24652 18.2385C5.35644 18.319 5.48775 18.3651 5.62387 18.371C5.75998 18.3769 5.89479 18.3423 6.01126 18.2716L10.5 15.5113Z" stroke="black" stroke-linecap="round" stroke-linejoin="round"/>
</svg>
